<svg width="32" height="32" viewBox="0 0 32 32" fill="none" xmlns="http://www.w3.org/2000/svg">
<circle cx="16" cy="16" r="16" fill="white"/>
<path d="M26.0001 16.5456C26.0001 15.8394 25.9375 15.1689 25.8302 14.5162H15.728V18.5482H21.5122C21.2529 19.8713 20.493 20.9888 19.3666 21.7487V24.4307H22.8174C24.8379 22.5622 26.0001 19.8087 26.0001 16.5456Z" fill="#4285F4"/>
<path d="M15.728 27.0322C18.6246 27.0322 21.0473 26.0666 22.8174 24.4306L19.3666 21.7486C18.4011 22.3923 17.1763 22.7857 15.728 22.7857C12.9298 22.7857 10.5607 20.8993 9.71143 18.3514H6.15332V21.1139C7.9145 24.6184 11.5352 27.0322 15.728 27.0322Z" fill="#34A853"/>
<path d="M9.71137 18.3513C9.48787 17.7077 9.37165 17.0193 9.37165 16.3041C9.37165 15.5889 9.49681 14.9005 9.71137 14.2568V11.4944H6.15326C5.42018 12.9427 5 14.5697 5 16.3041C5 18.0384 5.42018 19.6655 6.15326 21.1138L9.71137 18.3513Z" fill="#FBBC05"/>
<path d="M15.728 9.82266C17.3104 9.82266 18.7229 10.368 19.8404 11.4319L22.8979 8.37438C21.0473 6.64003 18.6246 5.57617 15.728 5.57617C11.5352 5.57617 7.9145 7.98997 6.15332 11.4944L9.71143 14.2569C10.5607 11.709 12.9298 9.82266 15.728 9.82266Z" fill="#EA4335"/>
</svg>
