<svg width="82" height="82" viewBox="0 0 82 82" fill="none" xmlns="http://www.w3.org/2000/svg">
<circle cx="41" cy="41" r="41" fill="#2F80ED"/>
<path d="M34.5 30H32H30.5C30 30.1667 29 30.7 29 31.5C29 32.5 28.5 32.5 28.5 34.5C28.5 36.5 28.5 35.5 29 36.5C29.5 37.5 29 37.5 29.5 38C30 38.5 29.7412 38.5 30 40C30.2588 41.5 31 41.5 31.5 42.5C32 43.5 32 43 32 44C32 45 32.5 44.5 33.5 45.5C34.5 46.5 34 46 34.5 47C35 48 36 48 37 49C38 50 38.5 51 39 51.5C39.5 52 40.5 52 41 52.5C41.5 53 44 54.5 45 54.5C46 54.5 46.5 55 47.5 54.5C48.5 54 48.5 55 50 54.5C51.5 54 51 54.5 53 53.5L54 53C54.1667 52.6667 54.5 51.9 54.5 51.5C54.5 51.1 54.1667 50.6667 54 50.5C53.8333 50.1667 53.4 49.4 53 49C52.5 48.5 52 48.5 52 48C52 47.6 51.3333 47.5 51 47.5C50.6667 47.3333 49.8 47 49 47C48 47 47.5 47 47 47.5C46.6 47.9 46.5 48.3333 46.5 48.5C45.8333 48.5 44.4 48.4 44 48C43.6 47.6 40.8333 46.5 39.5 46L37.5 45C37 44.3333 36 42.8 36 42C36 41 35 40.5 35 40C35 39.5 35 39.5 36 38.5C37 37.5 36.5 37 37 36.5C37.4 36.1 36.8333 34.6667 36.5 34L34.5 30Z" fill="white"/>
<path fill-rule="evenodd" clip-rule="evenodd" d="M37.1941 45.806C40.7677 49.3796 44.0869 51.3714 46.5566 52.4783C48.7134 53.445 51.2587 53.6865 53.2428 51.7023L53.6961 51.2476L48.2447 47.7788C47.2087 49.2896 45.2493 50.1761 43.2929 49.3513C41.8114 48.7254 39.8504 47.6555 38.0975 45.9026C36.3446 44.1497 35.2762 42.1887 34.6503 40.7072C33.824 38.7508 34.7089 36.7913 36.2213 35.7553L32.7525 30.304L32.2977 30.7573C30.3136 32.7414 29.5567 34.2867 30.5217 36.4435C31.6287 38.9132 33.6205 42.2324 37.1941 45.806ZM45.2971 55.2919C42.4989 54.0385 38.8652 51.837 35.0142 47.9859C31.1631 44.1364 28.9616 40.5011 27.7067 37.703C26.0494 34.003 27.5633 31.1334 30.1178 28.5773L30.5711 28.1226C30.8975 27.7959 31.2932 27.5467 31.7288 27.3935C32.1644 27.2402 32.6289 27.1868 33.088 27.2371C33.547 27.2874 33.9889 27.4402 34.381 27.6842C34.7731 27.9282 35.1054 28.2571 35.3533 28.6467L39.7162 35.5071C39.8318 35.6891 39.9079 35.8933 39.9396 36.1065C39.9714 36.3197 39.9581 36.5372 39.9005 36.745C39.843 36.9527 39.7425 37.1461 39.6056 37.3126C39.4687 37.4792 39.2984 37.6151 39.1057 37.7117L38.1299 38.2004C37.4639 38.5334 37.3282 39.1208 37.4901 39.5078C38.0127 40.7457 38.8868 42.3306 40.2774 43.7227C41.6695 45.1133 43.2544 45.9874 44.4923 46.51C44.8793 46.6734 45.4667 46.5362 45.7997 45.8702L46.2884 44.8943C46.3848 44.7015 46.5207 44.5311 46.6871 44.394C46.8536 44.2569 47.0469 44.1563 47.2547 44.0986C47.4625 44.041 47.68 44.0275 47.8933 44.0591C48.1066 44.0908 48.3109 44.1668 48.4929 44.2823L55.3534 48.6468C55.743 48.8947 56.0719 49.227 56.3159 49.6191C56.5599 50.0112 56.7127 50.4531 56.763 50.9121C56.8133 51.3712 56.7598 51.8357 56.6066 52.2713C56.4533 52.7069 56.2042 53.1026 55.8775 53.429L55.4227 53.8823C52.8682 56.4383 48.9986 56.9507 45.2971 55.2919Z" fill="white"/>
</svg>
