<svg width="27" height="27" viewBox="0 0 27 27" fill="none" xmlns="http://www.w3.org/2000/svg">
<path fill-rule="evenodd" clip-rule="evenodd" d="M12.9419 0.688477C12.7006 0.703616 11.5968 0.832062 11.4387 0.863398C10.9487 0.960581 9.86528 1.24786 9.48615 1.38116C9.26758 1.45802 8.02929 1.97622 7.98121 2.01098C7.96077 2.02572 7.827 2.10003 7.68394 2.17602C7.15594 2.45659 7.00627 2.54479 6.60633 2.81077C5.60794 3.47481 4.8169 4.15848 4.04841 5.02152C3.7356 5.37286 3.09264 6.20387 2.94765 6.44424C2.89923 6.5245 2.78875 6.69686 2.7021 6.82728C2.3126 7.41355 1.61371 8.95486 1.3659 9.77409C1.19303 10.3455 0.977772 11.4685 0.902822 12.1898C0.865626 12.5477 0.850799 14.2269 0.882682 14.4698C0.89056 14.53 0.907355 14.6695 0.919989 14.7799C1.0075 15.545 1.27244 16.7601 1.47481 17.3244C1.83774 18.3366 2.3508 19.438 2.68534 19.9232C2.76159 20.0337 2.85029 20.1746 2.88251 20.2361C2.97355 20.4101 3.64375 21.3033 3.86484 21.5454C3.97405 21.6649 4.07264 21.799 4.08401 21.8433C4.11009 21.9454 4.06628 22.1561 3.812 23.152C3.6993 23.5934 3.55921 24.168 3.50068 24.4288C3.44216 24.6897 3.29798 25.2755 3.18034 25.7308C3.06265 26.186 2.97552 26.5674 2.98666 26.5783C3.01045 26.6017 3.43361 26.429 3.99679 26.1661C4.217 26.0633 4.40462 25.9792 4.41376 25.9792C4.43219 25.9792 4.70787 25.8575 5.15712 25.6509C5.32062 25.5758 5.57981 25.461 5.73309 25.3958C5.88637 25.3307 6.20408 25.1877 6.43911 25.0781C6.67414 24.9685 6.99572 24.8299 7.15372 24.77C7.31175 24.7101 7.45069 24.6458 7.46251 24.6271C7.50082 24.5662 7.63203 24.5908 7.84595 24.6989C8.05363 24.8038 8.73543 25.1124 9.02166 25.2309C9.30756 25.3493 10.6688 25.7689 10.9168 25.8151C11.896 25.9974 12.6328 26.0848 13.42 26.1121C14.4668 26.1482 15.9656 26.0022 16.8537 25.7776C17.3443 25.6535 18.326 25.3453 18.6472 25.2145C20.4366 24.486 22.0675 23.387 23.2578 22.1075C24.2331 21.0591 24.7469 20.3452 25.3417 19.2122C25.8372 18.2685 26.1902 17.3459 26.4096 16.4215C26.6924 15.2294 26.801 14.2891 26.7779 13.2295C26.7578 12.3076 26.7392 12.0957 26.6112 11.3325C26.4965 10.649 26.2288 9.62445 26.0391 9.14375C25.944 8.90299 25.8322 8.60958 25.7905 8.49175C25.6741 8.16255 25.1157 7.11558 24.7926 6.62088C23.9811 5.37811 22.9157 4.20361 21.9158 3.44957C21.1532 2.87443 20.8219 2.6581 20.0959 2.26113C19.0457 1.68686 17.9965 1.29069 16.695 0.976997C15.6522 0.72565 14.1682 0.611577 12.9419 0.688477ZM10.4332 6.59534C10.5271 6.70857 10.6476 6.87682 10.7008 6.96926C10.754 7.06174 10.8609 7.23585 10.9383 7.35624C11.1093 7.62225 11.4167 8.17364 11.762 8.83367C11.9038 9.10454 12.0586 9.39244 12.1062 9.47346C12.2544 9.72593 12.3474 10.0525 12.3471 10.3191C12.3467 10.6734 12.2589 10.7985 11.4575 11.5874L10.772 12.2623L11.1191 12.7641C11.3101 13.0402 11.5111 13.3152 11.5657 13.3754C11.6204 13.4356 11.6935 13.5298 11.7282 13.5848C11.855 13.7858 12.5614 14.591 12.9966 15.0307C13.6703 15.7112 14.3857 16.2947 14.9609 16.6328C15.3548 16.8644 15.9422 17.146 16.0867 17.1726C16.2409 17.201 16.2167 17.2192 17.0861 16.4244L17.7414 15.8255L18.2308 15.9795C19.7564 16.4599 20.4623 16.7163 21.0984 17.0213C21.4049 17.1683 21.7042 17.3356 21.7634 17.3931C21.8227 17.4506 21.923 17.6044 21.9864 17.7348C22.0902 17.9484 22.1016 18.0061 22.1016 18.3184C22.1016 18.6509 22.0953 18.6777 21.9472 18.9751C21.8623 19.1456 21.745 19.3344 21.6864 19.3946C21.6278 19.4548 21.5188 19.5779 21.4442 19.6682C21.2369 19.9189 20.6501 20.4141 20.318 20.6184C20.1545 20.719 19.8912 20.8416 19.733 20.8908C19.1594 21.069 18.1306 21.045 17.3081 20.8343C16.3842 20.5976 15.1459 20.0965 14.3354 19.6312C14.1515 19.5256 13.9341 19.403 13.8523 19.3588C13.6214 19.2338 12.7099 18.6302 12.4895 18.4563C12.3807 18.3705 12.2247 18.252 12.143 18.1931C11.7469 17.9075 10.4519 16.6701 10.1935 16.3303C10.1173 16.2299 10.0263 16.1245 9.99144 16.0961C9.90393 16.0248 9.18903 15.0582 9.05838 14.8346C8.99981 14.7343 8.89057 14.5619 8.81562 14.4516C8.41541 13.8621 7.69791 12.2664 7.49788 11.5209C7.28429 10.725 7.14565 9.88284 7.14535 9.37941C7.14495 8.72004 7.27775 8.44834 7.89496 7.84576C8.28532 7.46469 9.02612 6.89116 9.3105 6.74987C9.39689 6.70693 9.51499 6.63901 9.57295 6.59891C9.72196 6.49582 10.0039 6.39324 10.1437 6.39123C10.2439 6.38978 10.289 6.42162 10.4332 6.59534Z" fill="#AEAEAE"/>
<path fill-rule="evenodd" clip-rule="evenodd" d="M12.9419 0.688477C12.7006 0.703616 11.5968 0.832062 11.4387 0.863398C10.9487 0.960581 9.86528 1.24786 9.48615 1.38116C9.26758 1.45802 8.02929 1.97622 7.98121 2.01098C7.96077 2.02572 7.827 2.10003 7.68394 2.17602C7.15594 2.45659 7.00627 2.54479 6.60633 2.81077C5.60794 3.47481 4.8169 4.15848 4.04841 5.02152C3.7356 5.37286 3.09264 6.20387 2.94765 6.44424C2.89923 6.5245 2.78875 6.69686 2.7021 6.82728C2.3126 7.41355 1.61371 8.95486 1.3659 9.77409C1.19303 10.3455 0.977772 11.4685 0.902822 12.1898C0.865626 12.5477 0.850799 14.2269 0.882682 14.4698C0.89056 14.53 0.907355 14.6695 0.919989 14.7799C1.0075 15.545 1.27244 16.7601 1.47481 17.3244C1.83774 18.3366 2.3508 19.438 2.68534 19.9232C2.76159 20.0337 2.85029 20.1746 2.88251 20.2361C2.97355 20.4101 3.64375 21.3033 3.86484 21.5454C3.97405 21.6649 4.07264 21.799 4.08401 21.8433C4.11009 21.9454 4.06628 22.1561 3.812 23.152C3.6993 23.5934 3.55921 24.168 3.50068 24.4288C3.44216 24.6897 3.29798 25.2755 3.18034 25.7308C3.06265 26.186 2.97552 26.5674 2.98666 26.5783C3.01045 26.6017 3.43361 26.429 3.99679 26.1661C4.217 26.0633 4.40462 25.9792 4.41376 25.9792C4.43219 25.9792 4.70787 25.8575 5.15712 25.6509C5.32062 25.5758 5.57981 25.461 5.73309 25.3958C5.88637 25.3307 6.20408 25.1877 6.43911 25.0781C6.67414 24.9685 6.99572 24.8299 7.15372 24.77C7.31175 24.7101 7.45069 24.6458 7.46251 24.6271C7.50082 24.5662 7.63203 24.5908 7.84595 24.6989C8.05363 24.8038 8.73543 25.1124 9.02166 25.2309C9.30756 25.3493 10.6688 25.7689 10.9168 25.8151C11.896 25.9974 12.6328 26.0848 13.42 26.1121C14.4668 26.1482 15.9656 26.0022 16.8537 25.7776C17.3443 25.6535 18.326 25.3453 18.6472 25.2145C20.4366 24.486 22.0675 23.387 23.2578 22.1075C24.2331 21.0591 24.7469 20.3452 25.3417 19.2122C25.8372 18.2685 26.1902 17.3459 26.4096 16.4215C26.6924 15.2294 26.801 14.2891 26.7779 13.2295C26.7578 12.3076 26.7392 12.0957 26.6112 11.3325C26.4965 10.649 26.2288 9.62445 26.0391 9.14375C25.944 8.90299 25.8322 8.60958 25.7905 8.49175C25.6741 8.16255 25.1157 7.11558 24.7926 6.62088C23.9811 5.37811 22.9157 4.20361 21.9158 3.44957C21.1532 2.87443 20.8219 2.6581 20.0959 2.26113C19.0457 1.68686 17.9965 1.29069 16.695 0.976997C15.6522 0.72565 14.1682 0.611577 12.9419 0.688477ZM10.4332 6.59534C10.5271 6.70857 10.6476 6.87682 10.7008 6.96926C10.754 7.06174 10.8609 7.23585 10.9383 7.35624C11.1093 7.62225 11.4167 8.17364 11.762 8.83367C11.9038 9.10454 12.0586 9.39244 12.1062 9.47346C12.2544 9.72593 12.3474 10.0525 12.3471 10.3191C12.3467 10.6734 12.2589 10.7985 11.4575 11.5874L10.772 12.2623L11.1191 12.7641C11.3101 13.0402 11.5111 13.3152 11.5657 13.3754C11.6204 13.4356 11.6935 13.5298 11.7282 13.5848C11.855 13.7858 12.5614 14.591 12.9966 15.0307C13.6703 15.7112 14.3857 16.2947 14.9609 16.6328C15.3548 16.8644 15.9422 17.146 16.0867 17.1726C16.2409 17.201 16.2167 17.2192 17.0861 16.4244L17.7414 15.8255L18.2308 15.9795C19.7564 16.4599 20.4623 16.7163 21.0984 17.0213C21.4049 17.1683 21.7042 17.3356 21.7634 17.3931C21.8227 17.4506 21.923 17.6044 21.9864 17.7348C22.0902 17.9484 22.1016 18.0061 22.1016 18.3184C22.1016 18.6509 22.0953 18.6777 21.9472 18.9751C21.8623 19.1456 21.745 19.3344 21.6864 19.3946C21.6278 19.4548 21.5188 19.5779 21.4442 19.6682C21.2369 19.9189 20.6501 20.4141 20.318 20.6184C20.1545 20.719 19.8912 20.8416 19.733 20.8908C19.1594 21.069 18.1306 21.045 17.3081 20.8343C16.3842 20.5976 15.1459 20.0965 14.3354 19.6312C14.1515 19.5256 13.9341 19.403 13.8523 19.3588C13.6214 19.2338 12.7099 18.6302 12.4895 18.4563C12.3807 18.3705 12.2247 18.252 12.143 18.1931C11.7469 17.9075 10.4519 16.6701 10.1935 16.3303C10.1173 16.2299 10.0263 16.1245 9.99144 16.0961C9.90393 16.0248 9.18903 15.0582 9.05838 14.8346C8.99981 14.7343 8.89057 14.5619 8.81562 14.4516C8.41541 13.8621 7.69791 12.2664 7.49788 11.5209C7.28429 10.725 7.14565 9.88284 7.14535 9.37941C7.14495 8.72004 7.27775 8.44834 7.89496 7.84576C8.28532 7.46469 9.02612 6.89116 9.3105 6.74987C9.39689 6.70693 9.51499 6.63901 9.57295 6.59891C9.72196 6.49582 10.0039 6.39324 10.1437 6.39123C10.2439 6.38978 10.289 6.42162 10.4332 6.59534Z" fill="url(#paint0_linear_48_1507)"/>
<defs>
<linearGradient id="paint0_linear_48_1507" x1="13.8231" y1="0.664795" x2="22.3563" y2="26.5805" gradientUnits="userSpaceOnUse">
<stop stop-color="#58D063"/>
<stop offset="1" stop-color="#28B43E"/>
</linearGradient>
</defs>
</svg>
