<svg width="22" height="22" viewBox="0 0 22 22" fill="none" xmlns="http://www.w3.org/2000/svg">
<path fill-rule="evenodd" clip-rule="evenodd" d="M10.252 0.0201039C10.0471 0.0329557 9.1101 0.141994 8.97594 0.168596C8.55989 0.251095 7.64021 0.494968 7.31836 0.608126C7.13282 0.673375 6.08162 1.11328 6.04081 1.14279C6.02346 1.1553 5.9099 1.21838 5.78845 1.28289C5.34023 1.52106 5.21317 1.59595 4.87366 1.82173C4.02612 2.38545 3.35459 2.96582 2.70222 3.69846C2.43668 3.99671 1.89086 4.70217 1.76778 4.90622C1.72667 4.97434 1.63289 5.12067 1.55933 5.23138C1.22868 5.72907 0.635388 7.0375 0.425017 7.73295C0.278272 8.21803 0.0955339 9.17132 0.0319084 9.78369C0.000332296 10.0875 -0.012254 11.513 0.0148113 11.7192C0.0214987 11.7703 0.0357569 11.8887 0.046482 11.9824C0.12077 12.6319 0.345682 13.6634 0.517474 14.1425C0.82557 15.0017 1.26111 15.9367 1.5451 16.3486C1.60983 16.4424 1.68513 16.562 1.71248 16.6143C1.78976 16.762 2.3587 17.5202 2.54639 17.7257C2.6391 17.8271 2.72279 17.941 2.73244 17.9786C2.75459 18.0652 2.71739 18.2441 2.50153 19.0896C2.40586 19.4643 2.28694 19.9521 2.23725 20.1735C2.18757 20.3949 2.06518 20.8922 1.96531 21.2787C1.86541 21.6651 1.79143 21.9889 1.8009 21.9982C1.82109 22.0181 2.18032 21.8715 2.65841 21.6483C2.84534 21.561 3.00461 21.4896 3.01237 21.4896C3.02801 21.4896 3.26204 21.3863 3.64342 21.2109C3.78221 21.1471 4.00224 21.0497 4.13236 20.9943C4.26248 20.939 4.53219 20.8176 4.73171 20.7246C4.93123 20.6316 5.20421 20.5139 5.33834 20.4631C5.4725 20.4123 5.59044 20.3577 5.60048 20.3418C5.633 20.2901 5.74438 20.311 5.92598 20.4027C6.10229 20.4918 6.68107 20.7537 6.92405 20.8543C7.16676 20.9549 8.32233 21.3111 8.53283 21.3503C9.36412 21.5051 9.98956 21.5793 10.6579 21.6024C11.5465 21.6331 12.8189 21.5091 13.5727 21.3185C13.9892 21.2131 14.8226 20.9515 15.0952 20.8405C16.6143 20.222 17.9988 19.289 19.0092 18.2029C19.8372 17.3129 20.2733 16.7069 20.7783 15.745C21.1989 14.9439 21.4985 14.1607 21.6848 13.376C21.9249 12.364 22.017 11.5657 21.9974 10.6663C21.9804 9.88368 21.9646 9.70382 21.8559 9.05594C21.7586 8.47563 21.5313 7.60592 21.3702 7.19785C21.2896 6.99346 21.1946 6.74439 21.1592 6.64436C21.0604 6.3649 20.5864 5.47612 20.3121 5.05616C19.6233 4.00117 18.7188 3.00413 17.87 2.36402C17.2226 1.87577 16.9414 1.69213 16.3251 1.35514C15.4335 0.867638 14.5429 0.531325 13.438 0.26503C12.5527 0.0516604 11.293 -0.0451767 10.252 0.0201039ZM8.12231 5.03448C8.20205 5.13061 8.30429 5.27343 8.34949 5.35191C8.39466 5.43041 8.48539 5.57822 8.55106 5.68042C8.69623 5.90624 8.9572 6.37432 9.25037 6.93462C9.37069 7.16456 9.50216 7.40896 9.54254 7.47774C9.66834 7.69207 9.74733 7.96927 9.74704 8.19558C9.74667 8.49638 9.67219 8.60256 8.99187 9.27231L8.4099 9.84522L8.70462 10.2712C8.8667 10.5056 9.03732 10.7391 9.08372 10.7901C9.13016 10.8412 9.19221 10.9212 9.22167 10.9679C9.32927 11.1385 9.92896 11.8221 10.2984 12.1953C10.8703 12.773 11.4776 13.2683 11.9659 13.5554C12.3003 13.7519 12.7989 13.991 12.9216 14.0136C13.0525 14.0377 13.0319 14.0531 13.77 13.3785L14.3263 12.87L14.7418 13.0008C16.0369 13.4086 16.6361 13.6262 17.176 13.8852C17.4363 14.01 17.6904 14.152 17.7406 14.2008C17.7909 14.2496 17.8761 14.3801 17.9299 14.4908C18.0181 14.6722 18.0278 14.7212 18.0278 14.9863C18.0278 15.2685 18.0224 15.2913 17.8967 15.5437C17.8246 15.6885 17.725 15.8488 17.6752 15.8999C17.6255 15.951 17.533 16.0555 17.4696 16.1321C17.2937 16.345 16.7955 16.7653 16.5136 16.9388C16.3748 17.0242 16.1513 17.1282 16.017 17.17C15.5301 17.3213 14.6567 17.3009 13.9585 17.122C13.1741 16.9211 12.123 16.4957 11.4349 16.1007C11.2788 16.0111 11.0943 15.907 11.0249 15.8695C10.8288 15.7633 10.055 15.251 9.86796 15.1034C9.77556 15.0305 9.64317 14.9299 9.5738 14.8799C9.2375 14.6375 8.13821 13.5871 7.91888 13.2985C7.85412 13.2133 7.77693 13.1239 7.74731 13.0998C7.67302 13.0393 7.06613 12.2187 6.95522 12.0289C6.90551 11.9437 6.81277 11.7974 6.74914 11.7037C6.4094 11.2033 5.80031 9.84869 5.63051 9.21586C5.44919 8.54016 5.33149 7.82527 5.33124 7.39791C5.33089 6.83816 5.44364 6.60751 5.96759 6.09598C6.29897 5.77249 6.92784 5.28561 7.16925 5.16567C7.24259 5.12922 7.34284 5.07155 7.39205 5.03752C7.51854 4.95 7.75784 4.86292 7.87654 4.86122C7.96162 4.85998 7.99995 4.88701 8.12231 5.03448Z" fill="#AEAEAE"/>
</svg>
