<svg width="82" height="82" viewBox="0 0 82 82" fill="none" xmlns="http://www.w3.org/2000/svg">
<circle cx="41" cy="41" r="41" fill="url(#paint0_linear_34_409)"/>
<circle cx="41" cy="41" r="41" fill="url(#paint1_linear_34_409)"/>
<path fill-rule="evenodd" clip-rule="evenodd" d="M26.1225 40.8057C34.4423 37.1926 39.9809 34.7917 42.7621 33.6269C50.6778 30.3228 52.3417 29.7523 53.4114 29.7285C53.6491 29.7285 54.1721 29.7761 54.5287 30.0613C54.8139 30.299 54.8852 30.608 54.9328 30.8457C54.9803 31.0835 55.0279 31.5826 54.9803 31.963C54.5524 36.4794 52.6983 47.4378 51.7475 52.4772C51.3434 54.6166 50.5589 55.3297 49.7983 55.401C48.1343 55.5436 46.8745 54.3075 45.2818 53.2616C42.7621 51.6214 41.3596 50.5993 38.9112 48.9829C36.0825 47.1288 37.9129 46.1066 39.5293 44.4427C39.9571 44.0148 47.2548 37.359 47.3974 36.7647C47.4212 36.6934 47.4212 36.4081 47.2548 36.2655C47.0884 36.1229 46.8507 36.1704 46.6605 36.218C46.399 36.2655 42.4055 38.9278 34.6325 44.1812C33.4915 44.9656 32.4693 45.3459 31.5423 45.3222C30.5201 45.2984 28.5709 44.7517 27.0971 44.2763C25.3143 43.7058 23.8881 43.3967 24.0069 42.3984C24.0782 41.8754 24.7914 41.3525 26.1225 40.8057Z" fill="white"/>
<defs>
<linearGradient id="paint0_linear_34_409" x1="41" y1="8.04663e-07" x2="68" y2="82" gradientUnits="userSpaceOnUse">
<stop stop-color="#58D063"/>
<stop offset="1" stop-color="#28B43E"/>
</linearGradient>
<linearGradient id="paint1_linear_34_409" x1="40.9659" y1="0" x2="40.9659" y2="81.3514" gradientUnits="userSpaceOnUse">
<stop stop-color="#2AABEE"/>
<stop offset="1" stop-color="#229ED9"/>
</linearGradient>
</defs>
</svg>
