<svg width="82" height="82" viewBox="0 0 82 82" fill="none" xmlns="http://www.w3.org/2000/svg">
<circle cx="41" cy="41" r="41" fill="url(#paint0_linear_34_402)"/>
<path fill-rule="evenodd" clip-rule="evenodd" d="M28.3958 40.5C28.3958 37.9082 29.1644 35.3747 30.6043 33.2197C32.0442 31.0647 34.0908 29.3852 36.4852 28.3933C38.8797 27.4015 41.5145 27.142 44.0565 27.6476C46.5984 28.1533 48.9334 29.4013 50.766 31.234C52.5987 33.0666 53.8467 35.4015 54.3524 37.9435C54.858 40.4855 54.5985 43.1203 53.6067 45.5147C52.6148 47.9092 50.9352 49.9558 48.7803 51.3957C46.6253 52.8356 44.0918 53.6042 41.5 53.6042C39.0208 53.6086 36.5917 52.9058 34.4977 51.5784C34.3115 51.4606 34.1021 51.3841 33.8838 51.354C33.6654 51.324 33.4432 51.3411 33.232 51.4042L28.792 52.7285L30.4647 48.8173C30.562 48.5896 30.6029 48.3418 30.5841 48.0949C30.5654 47.8481 30.4874 47.6093 30.3568 47.399C29.071 45.3279 28.3916 42.9378 28.3958 40.5ZM41.5 24.3125C32.5599 24.3125 25.3125 31.5599 25.3125 40.5C25.3125 43.3336 26.0417 46.0007 27.3244 48.3209L24.665 54.54C24.5499 54.8094 24.5139 55.106 24.5613 55.3951C24.6087 55.6842 24.7375 55.9538 24.9326 56.1723C25.1277 56.3909 25.381 56.5493 25.6629 56.6291C25.9448 56.7089 26.2436 56.7067 26.5242 56.6227L33.4617 54.5538C35.9084 55.9559 38.6801 56.6916 41.5 56.6875C50.4401 56.6875 57.6875 49.4401 57.6875 40.5C57.6875 31.5599 50.4401 24.3125 41.5 24.3125ZM45.035 43.8639L43.0077 45.2915C41.8908 44.6489 40.8651 43.8591 39.9583 42.9435C38.9848 41.9714 38.1431 40.8756 37.4547 39.6845L38.742 38.5914C39.0102 38.3638 39.1925 38.0514 39.2587 37.7059C39.3249 37.3604 39.2709 37.0027 39.1058 36.6921L37.4655 33.6087C37.3563 33.404 37.2023 33.2265 37.015 33.0895C36.8277 32.9525 36.6119 32.8596 36.3836 32.8177C36.1554 32.7757 35.9207 32.7859 35.6969 32.8473C35.4731 32.9087 35.2661 33.0199 35.0913 33.1725L34.6041 33.5964C33.434 34.617 32.7418 36.2943 33.3153 37.9932C34.238 40.6805 35.7648 43.1204 37.7784 45.125C40.5735 47.92 43.4132 49.0208 45.0751 49.4494C46.4133 49.7932 47.679 49.3322 48.5716 48.6045L49.4827 47.8615C49.6748 47.7048 49.8263 47.5042 49.9244 47.2765C50.0224 47.0489 50.0641 46.801 50.046 46.5538C50.0278 46.3066 49.9503 46.0674 49.8201 45.8565C49.6898 45.6456 49.5107 45.4693 49.2977 45.3424L46.7108 43.8007C46.455 43.6481 46.1605 43.5728 45.8628 43.584C45.5651 43.5952 45.2771 43.6925 45.0335 43.8639H45.035Z" fill="white"/>
<defs>
<linearGradient id="paint0_linear_34_402" x1="41" y1="8.04663e-07" x2="68" y2="82" gradientUnits="userSpaceOnUse">
<stop stop-color="#58D063"/>
<stop offset="1" stop-color="#28B43E"/>
</linearGradient>
</defs>
</svg>
