<?xml version="1.0" standalone="no"?>
<!DOCTYPE svg PUBLIC "-//W3C//DTD SVG 20010904//EN"
 "http://www.w3.org/TR/2001/REC-SVG-20010904/DTD/svg10.dtd">
<svg version="1.0" xmlns="http://www.w3.org/2000/svg"
 width="256.000000pt" height="256.000000pt" viewBox="0 0 256.000000 256.000000"
 preserveAspectRatio="xMidYMid meet">
<metadata>
Created by potrace 1.14, written by Peter Selinger 2001-2017
</metadata>
<g transform="translate(0.000000,256.000000) scale(0.100000,-0.100000)"
fill="#000000" stroke="none">
<path d="M390 2228 c1 -13 36 -425 78 -916 63 -724 80 -895 92 -901 8 -5 175
-50 371 -101 l355 -92 369 96 c202 53 369 97 371 98 3 4 154 1768 154 1806 l0
32 -895 0 -895 0 0 -22z m1452 -425 c-2 -32 -7 -80 -11 -108 l-6 -50 -430 -3
-430 -2 7 -83 c3 -45 7 -94 7 -109 l1 -28 416 0 416 0 -6 -47 c-3 -27 -17
-183 -31 -348 -14 -164 -28 -301 -30 -303 -2 -2 -106 -31 -230 -63 l-227 -59
-197 50 c-108 28 -212 55 -232 60 l-35 10 -13 167 c-7 93 -15 176 -17 186 -5
15 5 17 114 17 l119 0 7 -77 c11 -125 2 -115 130 -143 l112 -26 120 24 c65 13
122 27 126 31 8 7 38 215 38 263 l0 28 -385 0 c-300 0 -387 3 -390 13 -4 12
-55 608 -55 640 0 16 33 17 558 17 l559 0 -5 -57z"/>
</g>
</svg>
